<svg width="567" height="173" viewBox="0 0 567 173" fill="none" xmlns="http://www.w3.org/2000/svg">
<path d="M498.291 74.348C503.915 74.348 508.511 74.002 512.099 73.361C515.73 72.664 518.788 71.056 521.264 68.49C523.793 65.935 525.363 62.068 526.059 56.912C526.391 53.891 526.557 51.665 526.557 50.254C526.557 42.496 524.335 37.408 519.894 35.007C515.422 32.594 508.231 31.331 498.291 31.215V74.348ZM457.69 172.54V0.019043H497.34C508.65 0.019043 518.251 0.548039 526.094 1.62404C533.926 2.69304 540.885 4.91504 546.969 8.27704C553.02 11.644 557.787 16.801 561.306 23.65C564.784 30.529 566.664 39.617 566.932 50.961C566.932 65.281 563.791 77.289 557.557 87.005C551.32 96.727 541.92 102.686 529.297 104.861C522.392 105.934 512.059 106.424 498.291 106.424V172.54H457.69ZM338.849 172.54V0.019043H432.644V33.503H378.991V65.154H428.511V99.851H378.991V137.402H432.644V172.54H338.849ZM198.629 172.54V0.019043H239V65.154H271.327V0.019043H310.812V172.54H271.327V100.732H239V172.54H198.629Z" fill="white"/>
<path fill-rule="evenodd" clip-rule="evenodd" d="M127.455 -0.000183105L117.706 0.0258179L82.8527 98.6938L105.938 92.2178L77.7227 172.633H173.084L173.158 -0.000183105H127.455Z" fill="white"/>
<path fill-rule="evenodd" clip-rule="evenodd" d="M0.203 0.0368195L0 172.633H51.961L83.637 80.4658L62.907 88.1058L93.645 0.0368195H0.203Z" fill="white"/>
</svg>
