<svg width="342" height="444" viewBox="0 0 342 444" fill="none" xmlns="http://www.w3.org/2000/svg">
<g clip-path="url(#clip0_69_58)">
<path d="M275.758 340.655V338.871C277.699 338.777 278.794 338.605 279.044 338.386C279.295 338.167 279.451 337.603 279.498 336.727C279.592 334.864 279.655 331.406 279.655 326.335C279.655 324.395 279.624 321.578 279.561 317.9C279.53 315.381 279.483 314.004 279.389 313.753C279.295 313.503 279.154 313.331 278.935 313.205C278.622 313.049 277.558 312.924 275.727 312.799V311.03C278.622 311.14 280.844 311.202 282.378 311.202C285.023 311.202 287.417 311.14 289.545 311.03V312.799C287.62 312.908 286.541 313.065 286.306 313.252C286.055 313.44 285.899 313.894 285.836 314.567C285.711 315.929 285.649 318.667 285.649 322.783C285.649 328.276 285.664 332.095 285.711 334.254C285.758 336.414 285.868 337.697 286.087 338.104C286.181 338.292 286.353 338.433 286.635 338.542C286.916 338.652 287.886 338.761 289.561 338.871V340.655L287.073 340.592C285.492 340.53 284.084 340.498 282.847 340.498M237.855 340.655V338.871C239.576 338.746 240.531 338.636 240.75 338.542C240.907 338.464 241.016 338.386 241.094 338.26C241.235 338.073 241.345 337.65 241.439 336.993C241.595 335.882 241.673 333.816 241.689 330.827V322.877C241.705 320.342 241.673 318.229 241.595 316.523C241.517 314.817 241.407 313.831 241.266 313.55C241.188 313.362 241.032 313.221 240.844 313.127C240.547 312.986 239.561 312.877 237.871 312.814V311.046C240.406 311.14 242.659 311.202 244.647 311.202C247.026 311.202 249.279 311.155 251.407 311.046V312.814C249.639 312.939 248.606 313.096 248.34 313.284C248.058 313.456 247.902 313.91 247.839 314.614C247.761 315.506 247.73 319.058 247.714 325.256H248.011C249.436 324.113 251.486 322.204 254.162 319.528C256.838 316.852 258.904 314.614 260.359 312.83V312.047V311.265L260.547 311.062C262.08 311.155 263.395 311.218 264.475 311.218C265.617 311.218 266.9 311.171 268.325 311.062V312.83L267.12 312.955C266.165 313.049 265.539 313.159 265.257 313.268C264.694 313.518 263.943 314.035 262.988 314.833C261.58 316.007 259.811 317.603 257.652 319.653L253.896 323.19L255.836 325.569C258.121 328.386 260.86 331.578 264.052 335.146C265.883 337.196 266.979 338.323 267.339 338.542C267.589 338.683 268.262 338.793 269.342 338.871V340.655L268.231 340.608L264.475 340.498C263.473 340.498 262.159 340.545 260.547 340.655C259.404 339.184 257.479 336.852 254.772 333.628C252.738 331.202 250.813 329.012 248.966 327.04C248.731 326.789 248.559 326.633 248.465 326.586C248.387 326.555 248.293 326.539 248.215 326.539C247.996 326.539 247.855 326.633 247.777 326.805C247.73 326.914 247.714 327.478 247.714 328.495L247.808 334.896C247.839 336.758 247.918 337.838 248.043 338.12C248.137 338.307 248.262 338.464 248.465 338.542C248.747 338.667 249.733 338.777 251.439 338.871V340.655C249.357 340.561 247.057 340.498 244.522 340.498C243.238 340.498 241.047 340.545 237.917 340.655H237.855ZM212.33 331.735H214.193C214.193 333.816 214.271 335.037 214.396 335.397C214.506 335.756 214.913 336.226 215.601 336.805C216.29 337.384 217.182 337.869 218.277 338.229C219.373 338.589 220.5 338.777 221.658 338.777C223.645 338.777 225.226 338.245 226.415 337.196C227.604 336.148 228.199 334.833 228.199 333.253C228.199 331.813 227.808 330.702 227.01 329.919C226.212 329.152 224.694 328.605 222.456 328.276C219.138 327.791 216.9 327.274 215.742 326.711C214.584 326.148 213.661 325.303 213.003 324.176C212.33 323.049 212.002 321.703 212.002 320.123C212.002 317.478 212.941 315.24 214.803 313.409C216.665 311.578 219.654 310.655 223.739 310.655C225.351 310.655 226.759 310.78 228.011 311.015C229.263 311.249 230.5 311.641 231.752 312.188L231.971 312.705C231.736 313.597 231.579 314.395 231.486 315.115C231.392 315.835 231.313 317.071 231.235 318.824H229.404C229.326 316.648 229.232 315.443 229.091 315.177C228.825 314.724 228.152 314.223 227.057 313.722C225.977 313.205 224.725 312.955 223.316 312.955C221.392 312.955 219.889 313.425 218.841 314.364C217.776 315.303 217.244 316.508 217.244 317.979C217.244 318.886 217.464 319.669 217.886 320.342C218.324 321.015 218.935 321.5 219.717 321.813C220.5 322.126 222.174 322.486 224.756 322.908C227.088 323.253 228.669 323.597 229.498 323.941C230.86 324.489 231.892 325.334 232.597 326.461C233.301 327.587 233.661 328.996 233.661 330.717C233.661 333.706 232.518 336.179 230.234 338.151C227.949 340.138 224.834 341.124 220.875 341.124C219.122 341.124 217.526 340.952 216.086 340.624C214.647 340.279 213.176 339.731 211.642 338.949C211.892 337.963 212.064 337.071 212.158 336.273C212.268 335.162 212.33 333.659 212.346 331.782L212.33 331.735ZM186.587 340.655V338.871C187.385 338.871 188.23 338.808 189.107 338.667C189.513 338.589 189.795 338.48 189.967 338.323C190.139 338.151 190.265 337.869 190.343 337.431C190.437 336.821 190.531 334.614 190.609 330.764C190.64 328.041 190.671 325.256 190.671 322.407C190.671 316.821 190.671 313.972 190.625 313.878C190.593 313.785 190.092 313.722 189.138 313.722C187.182 313.722 185.507 313.785 184.099 313.894C183.285 313.957 182.831 314.035 182.722 314.098C182.612 314.176 182.534 314.285 182.487 314.457C182.424 314.645 182.299 315.866 182.127 318.166H180.311C180.343 315.475 180.265 313.174 180.077 311.234L180.311 311.062C184.74 311.249 189.06 311.359 193.254 311.359C197.448 311.359 202.111 311.265 207.291 311.062L207.526 311.406C207.26 313.331 207.072 315.584 206.963 318.182H205.21C205.085 315.835 204.96 314.567 204.834 314.364C204.74 314.207 204.506 314.098 204.161 314.051C203.035 313.878 200.797 313.785 197.448 313.785C197.166 313.785 196.994 313.831 196.947 313.91C196.884 314.004 196.853 314.379 196.853 315.021L196.728 329.199C196.728 333.3 196.759 335.819 196.837 336.758C196.916 337.697 197.072 338.26 197.338 338.464C197.526 338.589 198.621 338.73 200.656 338.902V340.686C198.59 340.592 196.399 340.53 194.067 340.53C191.016 340.53 188.543 340.577 186.634 340.686L186.587 340.655ZM162.581 317.916L158.136 328.745C159.435 328.824 160.859 328.855 162.424 328.855C163.989 328.855 165.617 328.824 167.103 328.745L162.581 317.916ZM148.746 338.37C150.061 338.292 150.875 338.167 151.188 337.963C151.407 337.822 151.735 337.29 152.189 336.367C153.05 334.536 154.145 332.001 155.476 328.745L162.94 310.451H166.039L175.57 333.112C176.806 336.054 177.573 337.666 177.855 337.947C178.152 338.229 179.044 338.417 180.531 338.511V340.295C178.23 340.201 176.07 340.138 174.02 340.138C171.595 340.138 169.279 340.185 167.072 340.295V338.511C168.746 338.448 169.717 338.339 169.983 338.229C170.249 338.104 170.374 337.885 170.374 337.587C170.374 337.321 170.077 336.398 169.482 334.849L168.089 331.234C166.352 331.202 164.396 331.187 162.252 331.187C160.374 331.187 158.668 331.187 157.15 331.234L156.227 333.659C155.961 334.317 155.663 335.303 155.304 336.617C155.21 336.915 155.178 337.181 155.178 337.415C155.178 337.744 155.319 337.963 155.585 338.104C155.867 338.245 156.853 338.386 158.559 338.511V340.295C157.181 340.201 155.46 340.138 153.41 340.138C151.36 340.138 149.904 340.185 148.746 340.295V338.37ZM121.72 312.814V311.046C124.396 311.14 126.837 311.202 129.059 311.202C131.031 311.202 133.191 311.155 135.538 311.046V312.814C133.911 312.924 132.925 313.065 132.612 313.205C132.299 313.362 132.142 313.597 132.142 313.925C132.142 314.332 132.737 315.991 133.911 318.902L139.889 333.456L144.662 321.688C146.415 317.353 147.307 314.755 147.307 313.878C147.307 313.55 147.15 313.331 146.853 313.174C146.555 313.033 145.523 312.908 143.785 312.814V311.046C146.352 311.14 148.073 311.202 148.95 311.202C149.857 311.202 151.501 311.155 153.848 311.046V312.814C152.424 312.955 151.595 313.127 151.375 313.331C151.031 313.597 150.217 315.209 148.934 318.182L142.455 333.722C141.125 336.789 140.186 339.246 139.623 341.077H136.54L129.075 323.19C127.353 319.105 126.148 316.351 125.46 314.896C125.069 314.035 124.724 313.518 124.427 313.331C124.145 313.143 123.238 312.971 121.72 312.83V312.814ZM92.4706 340.655V338.871C94.1138 338.73 95.0371 338.589 95.2875 338.48C95.444 338.386 95.5535 338.26 95.6161 338.073C95.757 337.728 95.8665 336.602 95.9135 334.645C95.9917 331.641 96.023 329.262 96.023 327.54C96.023 325.209 95.9917 322.235 95.9291 318.636C95.8822 315.944 95.7413 314.301 95.5379 313.691C95.4753 313.518 95.3657 313.362 95.1936 313.268C94.9745 313.127 94.0668 312.971 92.4706 312.799V311.03C95.3814 311.14 97.2593 311.202 98.1044 311.202L108.684 311.015C110.968 311.015 112.643 311.234 113.691 311.687C114.74 312.126 115.569 312.846 116.18 313.816C116.79 314.802 117.103 315.944 117.103 317.274C117.103 318.965 116.618 320.451 115.632 321.719C114.662 322.986 112.956 324.129 110.546 325.099L115.037 331.875L118.543 337.055C119.2 337.9 119.701 338.401 120.014 338.589C120.342 338.761 120.859 338.855 121.594 338.871V340.498H120.342C116.774 340.545 114.474 340.592 113.441 340.655C112.22 338.699 110.389 335.85 107.948 332.141L103.597 325.537C103.723 325.303 103.832 325.037 103.91 324.77C104.474 324.849 104.896 324.88 105.162 324.88C106.461 324.88 107.76 324.348 109.028 323.299C110.295 322.251 110.921 320.749 110.921 318.777C110.921 317.071 110.421 315.756 109.419 314.817C108.417 313.878 106.931 313.393 104.928 313.393C104.302 313.393 103.441 313.44 102.361 313.55L102.205 319.778L102.017 327.666C102.017 329.45 102.095 331.735 102.22 334.52C102.33 336.617 102.455 337.791 102.565 338.041C102.658 338.229 102.799 338.37 103.034 338.48C103.331 338.652 104.286 338.777 105.898 338.855V340.639C103.363 340.545 101.125 340.483 99.1686 340.483C97.0872 340.483 94.8493 340.53 92.4549 340.639L92.4706 340.655ZM52.4234 340.655V338.871C54.27 338.793 55.3185 338.667 55.5533 338.511C55.8037 338.354 55.9602 338.01 56.0541 337.509C56.1949 336.742 56.2575 334.786 56.2575 331.656L56.2262 320.123C56.2262 316.226 56.148 314.098 56.0228 313.753C55.9445 313.55 55.835 313.378 55.6628 313.268C55.3811 313.08 54.3013 312.939 52.4077 312.814V311.046C55.2246 311.14 57.4469 311.202 59.1057 311.202C61.7035 311.202 64.0823 311.155 66.2419 311.046V312.814C64.5205 312.924 63.4876 313.049 63.1746 313.19C63.0025 313.284 62.8616 313.393 62.7834 313.565C62.6425 313.831 62.533 314.645 62.486 316.007C62.3921 318.026 62.3608 320.091 62.3608 322.173V323.925C63.8162 324.004 66.148 324.035 69.3249 324.035C72.1418 324.035 74.2232 324.004 75.569 323.925C75.569 319.356 75.5378 316.32 75.4126 314.817C75.3656 314.004 75.2091 313.518 74.9744 313.331C74.6457 313.065 73.5503 312.893 71.688 312.799V311.03C75.1935 311.124 77.5565 311.187 78.7929 311.187C80.9212 311.187 83.1591 311.14 85.5222 311.03V312.799C83.7225 312.908 82.6739 313.049 82.3766 313.205C82.2045 313.299 82.0793 313.409 82.001 313.581C81.8758 313.878 81.7819 315.021 81.7193 317.024C81.6254 320.091 81.5785 322.58 81.5785 324.473L81.7037 334.051C81.735 336.21 81.7976 337.462 81.8915 337.791C81.9854 338.12 82.1575 338.354 82.3766 338.48C82.5957 338.62 83.6442 338.746 85.5222 338.871V340.655L83.1747 340.592C81.4063 340.53 80.0292 340.498 79.0276 340.498C76.9462 340.498 74.4892 340.545 71.6723 340.655V338.871C73.5659 338.793 74.6301 338.636 74.8961 338.417C75.1622 338.198 75.3187 337.634 75.3656 336.695C75.4595 335.099 75.5221 331.703 75.5534 326.523C73.9728 326.461 72.22 326.429 70.2952 326.429C67.2748 326.429 64.6144 326.461 62.3452 326.523V327.916C62.3452 331.609 62.3921 334.364 62.486 336.21C62.5643 337.447 62.7364 338.167 63.0025 338.37C63.2685 338.573 64.3483 338.746 66.2263 338.855V340.639L63.738 340.577C62.173 340.514 60.7489 340.483 59.5126 340.483L52.4077 340.639L52.4234 340.655Z" fill="#231F20"/>
<path d="M327.449 392.017V390.233C329.389 390.139 330.485 389.967 330.735 389.747C330.985 389.528 331.142 388.965 331.189 388.089C331.283 386.226 331.345 382.768 331.345 377.697C331.345 375.757 331.314 372.94 331.251 369.262C331.22 366.743 331.173 365.365 331.079 365.115C330.985 364.865 330.845 364.693 330.625 364.567C330.312 364.411 329.248 364.286 327.417 364.16V362.392C330.312 362.502 332.535 362.564 334.068 362.564C336.713 362.564 339.108 362.502 341.236 362.392V364.16C339.311 364.27 338.231 364.427 337.996 364.614C337.746 364.802 337.59 365.256 337.527 365.929C337.402 367.275 337.339 370.013 337.339 374.145C337.339 379.638 337.355 383.456 337.402 385.616C337.449 387.776 337.574 389.059 337.777 389.466C337.871 389.654 338.043 389.794 338.325 389.904C338.607 390.014 339.577 390.123 341.251 390.233V392.017L338.763 391.954C337.183 391.891 335.774 391.86 334.538 391.86M292.096 392.017V390.233C293.818 390.107 294.772 389.998 294.991 389.904C295.148 389.826 295.257 389.747 295.336 389.622C295.477 389.434 295.586 389.012 295.68 388.355C295.837 387.244 295.915 385.178 295.93 382.189V374.239C295.946 371.704 295.93 369.591 295.837 367.885C295.758 366.179 295.649 365.193 295.508 364.912C295.43 364.724 295.273 364.583 295.085 364.489C294.788 364.348 293.802 364.239 292.112 364.176V362.408C294.647 362.502 296.901 362.564 298.888 362.564C301.267 362.564 303.52 362.517 305.649 362.408V364.176C303.88 364.301 302.848 364.458 302.581 364.646C302.3 364.818 302.143 365.272 302.081 365.976C302.002 366.868 301.971 370.42 301.955 376.618H302.253C303.677 375.475 305.727 373.566 308.403 370.89C311.079 368.214 313.145 365.976 314.6 364.192V363.409V362.627L314.788 362.423C316.322 362.517 317.636 362.58 318.716 362.58C319.859 362.58 321.142 362.533 322.566 362.423V364.192L321.361 364.317C320.406 364.411 319.78 364.52 319.499 364.63C318.935 364.88 318.184 365.397 317.229 366.195C315.821 367.369 314.053 368.965 311.893 371.015L308.137 374.552L310.078 376.93C312.362 379.747 315.101 382.94 318.294 386.508C320.125 388.558 321.22 389.701 321.58 389.904C321.83 390.045 322.503 390.154 323.583 390.233V392.017L322.472 391.97L318.716 391.86C317.715 391.86 316.4 391.907 314.788 392.017C313.646 390.546 311.721 388.214 309.013 384.99C306.979 382.564 305.054 380.373 303.207 378.402C302.973 378.151 302.801 377.995 302.707 377.963C302.628 377.932 302.535 377.916 302.456 377.916C302.237 377.916 302.096 378.01 302.018 378.182C301.971 378.292 301.955 378.855 301.955 379.873L302.049 386.273C302.081 388.136 302.159 389.215 302.284 389.497C302.378 389.685 302.503 389.841 302.707 389.92C302.988 390.045 303.974 390.154 305.68 390.248V392.032C303.599 391.938 301.298 391.876 298.763 391.876C297.48 391.876 295.289 391.923 292.159 392.032L292.096 392.017ZM283.145 353.221L277.307 360.436H274.835L269.498 353.221H271.251L276.149 357.447L281.314 353.221H283.145ZM286.243 387.447L286.775 387.932C286.415 388.636 286.087 389.356 285.805 390.092C284.162 390.952 282.597 391.563 281.095 391.923C279.577 392.283 277.84 392.471 275.868 392.471C272.174 392.471 269.06 391.829 266.525 390.53C263.974 389.231 262.018 387.416 260.641 385.068C259.279 382.721 258.575 380.029 258.575 376.993C258.575 372.611 260.124 369.027 263.223 366.242C266.321 363.441 270.609 362.048 276.071 362.048C277.886 362.048 279.686 362.22 281.47 362.533C283.254 362.862 285.007 363.347 286.775 364.004L286.932 364.317C286.682 365.068 286.494 365.804 286.4 366.508C286.212 367.729 286.071 369.247 285.977 371.062H284.209C284.115 368.84 284.037 367.619 283.958 367.4C283.865 367.181 283.489 366.805 282.8 366.289C282.112 365.757 281.173 365.334 279.999 365.006C278.81 364.677 277.527 364.505 276.102 364.505C272.722 364.505 270.046 365.553 268.043 367.635C266.055 369.716 265.054 372.611 265.054 376.336C265.054 380.358 266.243 383.613 268.638 386.101C270.844 388.417 273.88 389.56 277.73 389.56C279.217 389.56 280.609 389.403 281.908 389.09C283.207 388.777 284.647 388.245 286.228 387.463L286.243 387.447ZM241.157 369.653L236.712 380.483C238.011 380.561 239.436 380.593 241 380.593C242.565 380.593 244.193 380.561 245.68 380.483L241.157 369.653ZM227.323 390.107C228.637 390.029 229.451 389.904 229.764 389.701C229.983 389.56 230.312 389.028 230.766 388.104C231.626 386.273 232.722 383.738 234.052 380.483L241.517 362.189H244.616L254.146 384.849C255.382 387.791 256.149 389.403 256.431 389.685C256.728 389.967 257.62 390.154 259.107 390.248V392.032C256.807 391.938 254.647 391.876 252.597 391.876C250.155 391.876 247.855 391.923 245.648 392.032V390.248C247.323 390.186 248.293 390.076 248.544 389.967C248.81 389.841 248.935 389.622 248.935 389.325C248.935 389.059 248.637 388.136 248.043 386.586L246.65 382.971C244.913 382.94 242.957 382.924 240.813 382.924C238.935 382.924 237.229 382.924 235.711 382.971L234.788 385.397C234.522 386.054 234.224 387.04 233.864 388.355C233.77 388.652 233.739 388.918 233.739 389.153C233.739 389.481 233.88 389.701 234.146 389.841C234.428 389.982 235.414 390.123 237.119 390.248V392.032C235.742 391.938 234.021 391.876 231.971 391.876C229.921 391.876 228.465 391.923 227.307 392.032V390.107H227.323ZM202.409 392.017V390.921C203.191 390.546 203.911 390.123 204.6 389.638C204.787 385.835 204.881 381.844 204.881 377.713C204.881 374.458 204.85 371.391 204.787 368.511C204.74 366.461 204.647 365.272 204.49 364.974C204.412 364.786 204.271 364.646 204.052 364.567C203.833 364.473 202.816 364.348 200.985 364.192V362.423C203.708 362.502 206.227 362.533 208.543 362.533C210.859 362.533 212.925 362.502 214.944 362.423V364.192C213.003 364.317 211.877 364.489 211.595 364.708C211.407 364.833 211.282 365.084 211.204 365.475C211.126 365.866 211.063 368.135 211.032 372.298L210.906 382.58C210.906 384.505 210.953 386.743 211.063 389.278C212.91 389.372 214.271 389.419 215.147 389.419C217.808 389.419 220.046 389.215 221.861 388.809C222.221 387.525 222.581 386.007 222.941 384.239H224.803C224.49 386.242 224.224 388.746 223.989 391.735C222.644 391.923 221.423 392.032 220.296 392.032L212.659 391.938L209.248 391.891C207.667 391.891 205.413 391.923 202.471 392.048L202.409 392.017ZM178.089 369.653L173.645 380.483C174.944 380.561 176.368 380.593 177.933 380.593C179.498 380.593 181.125 380.561 182.612 380.483L178.089 369.653ZM164.239 390.107C165.554 390.029 166.368 389.904 166.681 389.701C166.9 389.56 167.229 389.028 167.682 388.104C168.543 386.273 169.639 383.738 170.969 380.483L178.434 362.189H181.532L191.063 384.849C192.299 387.791 193.066 389.403 193.348 389.685C193.645 389.967 194.537 390.154 196.024 390.248V392.032C193.723 391.938 191.564 391.876 189.513 391.876C187.088 391.876 184.772 391.923 182.565 392.032V390.248C184.24 390.186 185.21 390.076 185.46 389.967C185.726 389.841 185.851 389.622 185.851 389.325C185.851 389.059 185.554 388.136 184.959 386.586L183.567 382.971C181.83 382.94 179.873 382.924 177.729 382.924C175.851 382.924 174.146 382.924 172.628 382.971L171.704 385.397C171.438 386.054 171.141 387.04 170.781 388.355C170.687 388.652 170.656 388.918 170.656 389.153C170.656 389.481 170.797 389.701 171.063 389.841C171.344 389.982 172.33 390.123 174.036 390.248V392.032C172.659 391.938 170.937 391.876 168.887 391.876C166.837 391.876 165.382 391.923 164.224 392.032V390.107H164.239ZM138.042 364.192V362.423C140.718 362.517 143.16 362.58 145.382 362.58C147.354 362.58 149.513 362.533 151.861 362.423V364.192C150.233 364.301 149.247 364.442 148.934 364.583C148.621 364.739 148.465 364.974 148.465 365.303C148.465 365.71 149.059 367.369 150.233 370.279L156.211 384.834L160.984 373.065C162.737 368.73 163.629 366.132 163.629 365.256C163.629 364.927 163.473 364.708 163.175 364.552C162.878 364.411 161.845 364.286 160.108 364.192V362.423C162.674 362.517 164.396 362.58 165.272 362.58C166.196 362.58 167.823 362.533 170.171 362.423V364.192C168.747 364.333 167.933 364.505 167.698 364.708C167.354 364.974 166.54 366.586 165.257 369.56L158.778 385.1C157.448 388.167 156.509 390.624 155.945 392.455H152.862L145.397 374.567C143.676 370.483 142.471 367.729 141.782 366.273C141.391 365.412 141.047 364.896 140.749 364.708C140.468 364.52 139.56 364.348 138.042 364.207V364.192ZM112.721 392.017V390.874C113.472 390.53 114.161 390.154 114.771 389.701C115.053 387.51 115.194 382.893 115.194 375.851C115.194 371.046 115.147 367.869 115.053 366.32C115.006 365.491 114.865 364.959 114.615 364.755C114.364 364.536 113.316 364.348 111.469 364.192V362.423C114.787 362.549 117.416 362.611 119.341 362.611L130.969 362.486C132.189 362.486 133.3 362.533 134.286 362.627L134.443 362.862C134.13 364.395 133.911 366.43 133.77 368.981H132.111C132.033 366.93 131.954 365.835 131.861 365.694C131.767 365.553 131.454 365.428 130.906 365.303C129.732 365.037 127.948 364.927 125.554 364.927C124.38 364.927 122.987 364.974 121.407 365.068C121.219 369.419 121.109 372.877 121.094 375.459C122.596 375.553 124.02 375.6 125.335 375.6C127.291 375.6 128.465 375.538 128.871 375.412C129.106 375.319 129.278 375.131 129.372 374.802C129.466 374.552 129.544 373.66 129.67 372.142H131.485C131.407 374.52 131.375 376.07 131.375 376.774L131.485 381.531H129.67C129.576 379.685 129.451 378.621 129.294 378.339C129.216 378.167 129.028 378.057 128.731 377.979C128.026 377.823 126.446 377.744 123.989 377.744C123.206 377.744 122.314 377.791 121.266 377.869C121.234 378.621 121.219 379.372 121.219 380.154C121.219 384.176 121.297 387.275 121.422 389.434L125.601 389.497C127.979 389.497 130.155 389.372 132.127 389.122C132.487 387.838 132.815 386.352 133.128 384.708H134.881C134.552 387.181 134.364 389.56 134.302 391.845C133.034 391.985 131.798 392.048 130.609 392.048C129.826 392.048 128.308 392.032 126.023 391.97C123.895 391.907 121.939 391.876 120.155 391.876C117.792 391.876 115.335 391.923 112.721 392.032V392.017ZM101.391 353.221L95.5536 360.436H93.0809L87.7444 353.221H89.4972L94.3955 357.447L99.5599 353.221H101.391ZM104.489 387.447L105.022 387.932C104.662 388.636 104.333 389.356 104.051 390.092C102.424 390.952 100.843 391.563 99.3408 391.923C97.8227 392.283 96.0856 392.471 94.1138 392.471C90.4205 392.471 87.3063 391.829 84.771 390.53C82.2201 389.231 80.2639 387.416 78.8868 385.068C77.5253 382.721 76.821 380.029 76.821 376.993C76.821 372.611 78.3704 369.027 81.469 366.242C84.5676 363.441 88.8556 362.048 94.3172 362.048C96.1326 362.048 97.9323 362.22 99.7163 362.533C101.5 362.862 103.253 363.347 105.022 364.004L105.178 364.317C104.928 365.068 104.74 365.804 104.646 366.508C104.458 367.729 104.317 369.247 104.223 371.062H102.455C102.361 368.84 102.283 367.619 102.205 367.4C102.111 367.181 101.735 366.805 101.047 366.289C100.358 365.757 99.419 365.334 98.2453 365.006C97.0559 364.677 95.7727 364.505 94.3485 364.505C90.9682 364.505 88.2922 365.553 86.289 367.635C84.3015 369.716 83.3 372.611 83.3 376.336C83.3 380.358 84.4893 383.613 86.8837 386.101C89.0903 388.417 92.1263 389.56 95.9761 389.56C97.4628 389.56 98.8556 389.403 100.155 389.09C101.453 388.777 102.893 388.245 104.474 387.463L104.489 387.447ZM58.7145 369.653L54.27 380.483C55.569 380.561 56.9931 380.593 58.558 380.593C60.123 380.593 61.7505 380.561 63.2372 380.483L58.7145 369.653ZM44.8803 390.107C46.1949 390.029 47.0087 389.904 47.3217 389.701C47.5407 389.56 47.8694 389.028 48.3232 388.104C49.1839 386.273 50.2794 383.738 51.6096 380.483L59.0745 362.189H62.1731L71.7036 384.849C72.94 387.791 73.7068 389.403 73.9885 389.685C74.2858 389.967 75.1778 390.154 76.6646 390.248V392.032C74.3641 391.938 72.2044 391.876 70.1543 391.876C67.7287 391.876 65.4125 391.923 63.2059 392.032V390.248C64.8804 390.186 65.8507 390.076 66.1011 389.967C66.3671 389.841 66.4923 389.622 66.4923 389.325C66.4923 389.059 66.195 388.136 65.6003 386.586L64.2075 382.971C62.4704 382.94 60.5142 382.924 58.3702 382.924C56.4923 382.924 54.7865 382.924 53.2685 382.971L52.3451 385.397C52.0791 386.054 51.7818 387.04 51.4218 388.355C51.3279 388.652 51.2966 388.918 51.2966 389.153C51.2966 389.481 51.4375 389.701 51.7035 389.841C51.9852 389.982 52.9711 390.123 54.6769 390.248V392.032C53.2998 391.938 51.5783 391.876 49.5282 391.876C47.4781 391.876 46.0227 391.923 44.8647 392.032V390.107H44.8803ZM0.732935 392.032V390.264L2.00055 390.186C3.03342 390.123 3.67505 389.951 3.92544 389.654C4.19149 389.356 4.34798 388.37 4.37928 386.665C4.48883 383.19 4.53578 379.419 4.53578 375.381C4.53578 373.222 4.53578 370.78 4.48883 368.042C4.45753 366.383 4.36363 365.365 4.19149 365.006C4.11324 364.818 3.95674 364.677 3.73765 364.567C3.50291 364.458 2.51698 364.333 0.732935 364.207V362.439C2.43874 362.486 4.09759 362.502 5.72514 362.502C7.61874 362.502 9.44973 362.486 11.2181 362.439C11.9693 364.223 12.7518 365.991 13.5812 367.76C14.1602 369.012 16.7111 374.333 21.2338 383.691C26.0226 374.067 29.3716 366.993 31.2809 362.439C32.971 362.517 34.5673 362.549 36.1009 362.549C37.885 362.549 39.6064 362.517 41.2653 362.439V364.207C39.4186 364.317 38.3701 364.473 38.1354 364.693C37.9006 364.896 37.7441 365.553 37.6659 366.633C37.5563 368.401 37.5094 371.782 37.5094 376.743C37.5094 379.247 37.5407 381.891 37.5876 384.677C37.6502 387.463 37.7441 389.043 37.885 389.403C37.9789 389.622 38.1197 389.779 38.3075 389.888C38.4953 389.998 39.4812 390.139 41.2653 390.28V392.048C38.9804 391.938 36.946 391.876 35.1619 391.876C33.3779 391.876 30.9209 391.938 27.8223 392.048V390.28L29.0743 390.233C30.0602 390.201 30.6705 390.06 30.9209 389.826C31.1713 389.591 31.3278 388.981 31.3904 387.995C31.4687 387.009 31.5 384.661 31.5 380.984V368.245C29.3247 372.596 26.5703 378.292 23.2057 385.334C21.8285 388.229 20.7487 390.593 19.9662 392.424H18.5265C17.478 389.998 16.0538 386.946 14.2854 383.253L6.99276 368.245V371.109C6.99276 379.043 7.0397 384.521 7.11795 387.51C7.1649 388.715 7.3214 389.466 7.60309 389.747C7.88478 390.029 8.9333 390.217 10.7486 390.295V392.064C9.30889 391.954 7.88478 391.891 6.44502 391.891C4.30103 391.891 2.39179 391.954 0.717285 392.064L0.732935 392.032Z" fill="#231F20"/>
<path d="M217.292 443.394V441.72C221.971 435.82 227.933 427.432 235.179 416.586L229.937 416.524C227.135 416.524 224.976 416.602 223.458 416.727C222.8 416.79 222.394 416.899 222.206 417.087C222.034 417.275 221.861 418.026 221.674 419.372L221.439 420.843H219.733C219.733 419.857 219.764 418.668 219.811 417.291L219.858 415.945C219.858 415.366 219.811 414.708 219.733 413.973L219.999 413.785C222.988 413.942 225.649 414.02 227.996 414.02C236.869 414.02 242.018 414.02 243.442 413.989V415.491C237.104 423.973 231.126 432.392 225.555 440.765C228.434 440.874 231.11 440.921 233.567 440.921C236.165 440.921 238.184 440.812 239.624 440.608C240.062 440.53 240.359 440.421 240.484 440.249C240.672 440.029 240.985 438.95 241.408 437.04L241.642 435.961H243.442C243.098 437.995 242.863 440.468 242.722 443.41C241.877 443.472 241.032 443.519 240.203 443.519L224.287 443.269C223.16 443.269 220.813 443.316 217.245 443.425M188.653 443.394V442.252C189.404 441.907 190.093 441.532 190.703 441.078C190.985 438.887 191.126 434.27 191.126 427.228C191.126 422.424 191.079 419.247 190.985 417.697C190.938 416.868 190.797 416.336 190.547 416.133C190.296 415.913 189.248 415.726 187.401 415.569V413.801C190.719 413.926 193.348 413.989 195.273 413.989L206.9 413.863C208.121 413.863 209.232 413.91 210.218 414.004L210.375 414.239C210.062 415.773 209.843 417.807 209.702 420.358H208.043C207.965 418.308 207.886 417.212 207.792 417.072C207.699 416.931 207.386 416.805 206.838 416.68C205.664 416.414 203.88 416.305 201.486 416.305C200.312 416.305 198.919 416.352 197.339 416.446C197.151 420.796 197.041 424.255 197.026 426.837C198.528 426.931 199.952 426.978 201.267 426.978C203.223 426.978 204.397 426.915 204.803 426.79C205.038 426.696 205.21 426.508 205.304 426.18C205.398 425.929 205.476 425.037 205.602 423.519H207.417C207.339 425.898 207.307 427.447 207.307 428.151L207.417 432.909H205.602C205.508 431.062 205.382 429.998 205.226 429.716C205.148 429.544 204.96 429.435 204.663 429.356C203.958 429.2 202.378 429.122 199.921 429.122C199.138 429.122 198.246 429.169 197.198 429.247C197.166 429.998 197.151 430.749 197.151 431.516C197.151 435.538 197.229 438.637 197.354 440.796L201.533 440.859C203.911 440.859 206.087 440.734 208.059 440.483C208.418 439.2 208.747 437.713 209.06 436.07H210.813C210.484 438.543 210.296 440.921 210.234 443.206C208.966 443.347 207.73 443.41 206.54 443.41C205.758 443.41 204.24 443.394 201.955 443.331C199.827 443.269 197.871 443.238 196.087 443.238C193.724 443.238 191.267 443.285 188.653 443.394ZM150.359 415.554V413.785C153.035 413.879 155.476 413.942 157.698 413.942C159.67 413.942 161.83 413.895 164.177 413.785V415.554C162.55 415.663 161.564 415.804 161.251 415.945C160.938 416.101 160.781 416.336 160.781 416.665C160.781 417.072 161.376 418.73 162.55 421.641L168.528 436.195L173.301 424.427C175.054 420.092 175.946 417.494 175.946 416.618C175.946 416.289 175.789 416.07 175.492 415.913C175.194 415.773 174.162 415.647 172.424 415.554V413.785C174.991 413.879 176.712 413.942 177.589 413.942C178.497 413.942 180.14 413.895 182.487 413.785V415.554C181.063 415.694 180.234 415.866 180.015 416.07C179.67 416.336 178.856 417.948 177.573 420.921L171.094 436.461C169.764 439.529 168.825 441.986 168.262 443.817H165.179L157.714 425.929C155.992 421.845 154.787 419.09 154.099 417.635C153.708 416.774 153.363 416.258 153.066 416.07C152.784 415.882 151.877 415.71 150.359 415.569V415.554ZM137.26 420.64L132.815 431.469C134.114 431.547 135.538 431.579 137.103 431.579C138.668 431.579 140.296 431.547 141.783 431.469L137.26 420.64ZM123.426 441.094C124.74 441.015 125.554 440.89 125.867 440.687C126.086 440.546 126.415 440.014 126.869 439.09C127.729 437.259 128.825 434.724 130.155 431.469L137.62 413.175H140.718L150.249 435.835C151.485 438.777 152.252 440.389 152.534 440.671C152.831 440.953 153.723 441.141 155.21 441.234V443.018C152.909 442.925 150.75 442.862 148.7 442.862C146.274 442.862 143.958 442.909 141.751 443.018V441.234C143.426 441.172 144.396 441.062 144.647 440.953C144.913 440.828 145.038 440.608 145.038 440.311C145.038 440.045 144.74 439.122 144.146 437.572L142.753 433.957C141.016 433.926 139.06 433.91 136.916 433.91C135.038 433.91 133.332 433.91 131.814 433.957L130.891 436.383C130.625 437.04 130.327 438.026 129.967 439.341C129.873 439.638 129.842 439.904 129.842 440.139C129.842 440.468 129.983 440.687 130.249 440.828C130.531 440.968 131.517 441.109 133.222 441.234V443.018C131.845 442.925 130.124 442.862 128.074 442.862C126.024 442.862 124.568 442.909 123.41 443.018V441.094H123.426ZM99.2315 434.458H101.094C101.094 436.54 101.172 437.76 101.297 438.12C101.407 438.48 101.814 438.95 102.502 439.529C103.191 440.108 104.083 440.593 105.178 440.953C106.274 441.313 107.401 441.5 108.559 441.5C110.546 441.5 112.127 440.968 113.316 439.92C114.505 438.871 115.1 437.557 115.1 435.976C115.1 434.536 114.709 433.425 113.911 432.643C113.113 431.876 111.595 431.328 109.357 431C106.039 430.514 103.801 429.998 102.643 429.435C101.485 428.871 100.562 428.026 99.9045 426.899C99.2315 425.773 98.9029 424.427 98.9029 422.846C98.9029 420.201 99.8262 417.964 101.704 416.133C103.566 414.302 106.556 413.378 110.64 413.378C112.252 413.378 113.66 413.503 114.912 413.738C116.164 413.973 117.401 414.364 118.653 414.912L118.872 415.428C118.637 416.32 118.48 417.118 118.402 417.838C118.308 418.558 118.23 419.795 118.152 421.547H116.321C116.243 419.372 116.149 418.167 116.008 417.901C115.742 417.447 115.069 416.946 113.973 416.446C112.894 415.929 111.642 415.679 110.233 415.679C108.308 415.679 106.806 416.148 105.757 417.087C104.693 418.026 104.161 419.231 104.161 420.702C104.161 421.61 104.38 422.392 104.803 423.065C105.241 423.738 105.851 424.223 106.634 424.536C107.416 424.849 109.091 425.209 111.673 425.632C114.005 425.976 115.585 426.32 116.415 426.665C117.776 427.212 118.809 428.057 119.513 429.184C120.218 430.311 120.578 431.719 120.578 433.441C120.578 436.43 119.435 438.903 117.15 440.874C114.865 442.862 111.751 443.848 107.792 443.848C106.039 443.848 104.443 443.676 103.003 443.347C101.563 443.003 100.092 442.455 98.5586 441.673C98.809 440.687 98.9811 439.795 99.075 438.997C99.1846 437.885 99.2472 436.383 99.2628 434.505L99.2315 434.458Z" fill="#231F20"/>
<path d="M159.779 214.911H132.017V230.091C140.045 235.13 149.497 238.745 159.779 240.482M215.304 214.911H187.542V240.482C197.823 238.745 207.276 235.13 215.304 230.091V214.911ZM132.033 186.773H105.663C105.663 197.039 109.2 206.663 115.334 214.911H132.033V186.773ZM187.542 186.773H159.779V214.911H187.542V186.773ZM241.673 186.773H215.304V214.911H232.002C238.137 206.679 241.673 197.039 241.673 186.773ZM159.779 158.635H132.017V186.773H159.779V158.635ZM215.304 158.635H187.542V186.773H215.304V158.635ZM132.033 130.497H105.663V158.635H132.033V130.497ZM159.779 130.497V103.768H132.017V130.497H159.779ZM187.542 130.497H159.779V158.635H187.542V130.497ZM215.304 130.497V103.768H187.542V130.497H215.304ZM241.673 130.497H215.304V158.635H241.673V130.497ZM244.459 186.773C244.459 202.72 236.462 217.18 223.567 227.634C210.765 238.009 193.097 244.457 173.676 244.457C154.239 244.457 136.587 238.025 123.77 227.634C110.874 217.18 102.877 202.72 102.877 186.773V100.951H244.459V186.773Z" fill="#ED1C24"/>
<path fill-rule="evenodd" clip-rule="evenodd" d="M131.564 233.111L113.629 261.907C112.847 263.159 113.207 264.802 114.443 265.6C115.664 266.398 117.307 266.022 118.089 264.786L136.446 235.819C135.413 235.287 134.38 234.739 133.379 234.176C132.988 233.956 132.596 233.722 132.205 233.503C132.205 233.503 132.19 233.503 132.174 233.503C132.174 233.503 132.174 233.503 132.158 233.503C132.143 233.503 132.127 233.487 132.096 233.471C131.923 233.377 131.751 233.268 131.579 233.174M268.575 28.8065L261.017 23.9238L257.605 29.3542C256.744 34.2525 254.459 40.0272 250.907 45.6767C247.355 51.3262 243.16 55.8489 239.139 58.7128L238.513 59.6987L222.597 49.4326C220.656 56.0054 224.647 64.7222 232.566 71.0133L213.896 100.935H221.94L238.497 74.8318C247.448 79.4328 256.932 79.4171 261.987 74.8475L246.071 64.5814L246.697 63.5798C247.558 58.6815 249.843 52.9068 253.38 47.273C256.932 41.6391 261.126 37.1008 265.148 34.2369L268.575 28.7908V28.8065Z" fill="#231F20"/>
<path fill-rule="evenodd" clip-rule="evenodd" d="M177.447 244.363L177.338 270.842C177.338 272.313 176.148 273.518 174.693 273.518C173.238 273.518 172.048 272.313 172.048 270.842L171.939 244.426C172.502 244.426 173.081 244.442 173.66 244.442C174.928 244.442 176.18 244.41 177.432 244.363M169.043 0.198975H180.342V3.97052C178.543 8.68103 177.432 14.9252 177.432 21.7484C177.432 28.5716 178.527 34.8158 180.342 39.5263V43.3448H203.66C201.344 55.2541 191.015 64.5656 178.198 66.021L178.042 100.966H171.328L171.172 66.021C158.355 64.5656 148.042 55.2697 145.71 43.3448H169.028V39.5106C170.827 34.8001 171.939 28.5716 171.939 21.7484C171.939 14.9252 170.843 8.68103 169.028 3.97052V0.198975H169.043Z" fill="#231F20"/>
<path fill-rule="evenodd" clip-rule="evenodd" d="M89.2154 40.2934C93.3156 45.0978 103.989 59.824 100.687 63.0009C96.3203 64.7536 86.6489 59.9335 84.411 48.2277C83.6911 43.0633 85.1308 35.9584 89.1997 40.2777M217.26 232.173L236.259 262.658C237.041 263.91 236.681 265.553 235.445 266.351C234.224 267.149 232.581 266.774 231.798 265.537L212.44 235.005C214.099 234.113 215.695 233.174 217.26 232.188V232.173ZM105.1 80.7474C90.2952 83.1731 77.1183 73.3452 73.8632 58.4625C72.0948 44.8787 75.7411 34.7378 84.3953 27.6016C86.2263 26.0523 87.1496 25.708 88.4955 27.6955C93.8946 37.7112 99.5284 46.7253 106.101 55.9116C109.388 60.5595 113.801 59.2606 119.763 53.8615C121.219 52.8286 122.612 53.3138 122.831 55.1448C123.253 62.6096 121.532 68.6347 118.073 73.0322L135.507 100.935H127.447L112.721 77.7427C110.499 79.0886 107.948 80.0902 105.1 80.7161V80.7474Z" fill="#231F20"/>
</g>
<defs>
<clipPath id="clip0_69_58">
<rect width="340.534" height="443.602" fill="white" transform="translate(0.73291 0.198975)"/>
</clipPath>
</defs>
</svg>
